<svg xmlns="http://www.w3.org/2000/svg" version="1.1" xmlns:xlink="http://www.w3.org/1999/xlink" xmlns:svgjs="http://svgjs.dev/svgjs" viewBox="0 0 1422 800"><defs><radialGradient id="cccircular-grad" r="50%" cx="50%" cy="50%">
         <stop offset="15%" stop-color="#002d2d" stop-opacity="0.5"></stop>
         <stop offset="75%" stop-color="hsl(180, 69%, 20%)" stop-opacity="1"></stop>
          <stop offset="100%" stop-color="#74b3b2" stop-opacity="1"></stop>
        </radialGradient></defs><g fill="url(#cccircular-grad)"><circle r="1552.5" cx="0" cy="400" opacity="1.00"></circle><circle r="1485" cx="0" cy="400" opacity="0.96"></circle><circle r="1417.5" cx="0" cy="400" opacity="0.91"></circle><circle r="1350" cx="0" cy="400" opacity="0.87"></circle><circle r="1282.5" cx="0" cy="400" opacity="0.83"></circle><circle r="1215" cx="0" cy="400" opacity="0.78"></circle><circle r="1147.5" cx="0" cy="400" opacity="0.74"></circle><circle r="1080" cx="0" cy="400" opacity="0.70"></circle><circle r="1012.5" cx="0" cy="400" opacity="0.65"></circle><circle r="945" cx="0" cy="400" opacity="0.61"></circle><circle r="877.5" cx="0" cy="400" opacity="0.57"></circle><circle r="810" cx="0" cy="400" opacity="0.53"></circle><circle r="742.5" cx="0" cy="400" opacity="0.48"></circle><circle r="675" cx="0" cy="400" opacity="0.44"></circle><circle r="607.5" cx="0" cy="400" opacity="0.40"></circle><circle r="540" cx="0" cy="400" opacity="0.35"></circle><circle r="472.5" cx="0" cy="400" opacity="0.31"></circle><circle r="405" cx="0" cy="400" opacity="0.27"></circle><circle r="337.5" cx="0" cy="400" opacity="0.22"></circle><circle r="270" cx="0" cy="400" opacity="0.18"></circle><circle r="202.5" cx="0" cy="400" opacity="0.14"></circle><circle r="135" cx="0" cy="400" opacity="0.09"></circle></g></svg>