<svg xmlns="http://www.w3.org/2000/svg" version="1.1" xmlns:xlink="http://www.w3.org/1999/xlink" xmlns:svgjs="http://svgjs.dev/svgjs" viewBox="0 0 1422 800"><defs><radialGradient id="cccircular-grad" r="50%" cx="50%" cy="50%">
       <stop offset="25%" stop-color="#11504f" stop-opacity="0.5"></stop>
       <stop offset="85%" stop-color="#437d7b" stop-opacity="1"></stop>
        <stop offset="100%" stop-color="#a2dedc" stop-opacity="0.5"></stop>
      </radialGradient></defs><g fill="url(#cccircular-grad)"><circle r="1692" cx="711" cy="0" opacity="0.05"></circle><circle r="1645" cx="711" cy="0" opacity="0.08"></circle><circle r="1598" cx="711" cy="0" opacity="0.10"></circle><circle r="1551" cx="711" cy="0" opacity="0.13"></circle><circle r="1504" cx="711" cy="0" opacity="0.16"></circle><circle r="1457" cx="711" cy="0" opacity="0.19"></circle><circle r="1410" cx="711" cy="0" opacity="0.21"></circle><circle r="1363" cx="711" cy="0" opacity="0.24"></circle><circle r="1316" cx="711" cy="0" opacity="0.27"></circle><circle r="1269" cx="711" cy="0" opacity="0.29"></circle><circle r="1222" cx="711" cy="0" opacity="0.32"></circle><circle r="1175" cx="711" cy="0" opacity="0.35"></circle><circle r="1128" cx="711" cy="0" opacity="0.38"></circle><circle r="1081" cx="711" cy="0" opacity="0.40"></circle><circle r="1034" cx="711" cy="0" opacity="0.43"></circle><circle r="987" cx="711" cy="0" opacity="0.46"></circle><circle r="940" cx="711" cy="0" opacity="0.48"></circle><circle r="893" cx="711" cy="0" opacity="0.51"></circle><circle r="846" cx="711" cy="0" opacity="0.54"></circle><circle r="799" cx="711" cy="0" opacity="0.57"></circle><circle r="752" cx="711" cy="0" opacity="0.59"></circle><circle r="705" cx="711" cy="0" opacity="0.62"></circle><circle r="658" cx="711" cy="0" opacity="0.65"></circle><circle r="611" cx="711" cy="0" opacity="0.67"></circle><circle r="564" cx="711" cy="0" opacity="0.70"></circle><circle r="517" cx="711" cy="0" opacity="0.73"></circle><circle r="470" cx="711" cy="0" opacity="0.76"></circle><circle r="423" cx="711" cy="0" opacity="0.78"></circle><circle r="376" cx="711" cy="0" opacity="0.81"></circle><circle r="329" cx="711" cy="0" opacity="0.84"></circle><circle r="282" cx="711" cy="0" opacity="0.86"></circle><circle r="235" cx="711" cy="0" opacity="0.89"></circle><circle r="188" cx="711" cy="0" opacity="0.92"></circle><circle r="141" cx="711" cy="0" opacity="0.95"></circle><circle r="94" cx="711" cy="0" opacity="0.97"></circle></g></svg>