<svg xmlns="http://www.w3.org/2000/svg" version="1.1" xmlns:xlink="http://www.w3.org/1999/xlink" xmlns:svgjs="http://svgjs.dev/svgjs" viewBox="0 0 1422 800"><defs><radialGradient id="cccircular-grad" r="50%" cx="50%" cy="50%">
         <stop offset="15%" stop-color="#002d2d" stop-opacity="0.5"></stop>
         <stop offset="75%" stop-color="hsl(180, 69%, 20%)" stop-opacity="1"></stop>
          <stop offset="100%" stop-color="#74b3b2" stop-opacity="1"></stop>
        </radialGradient></defs><g fill="url(#cccircular-grad)"><circle r="3307.5" cx="0" cy="400" opacity="1.00"></circle><circle r="3240" cx="0" cy="400" opacity="0.98"></circle><circle r="3172.5" cx="0" cy="400" opacity="0.96"></circle><circle r="3105" cx="0" cy="400" opacity="0.94"></circle><circle r="3037.5" cx="0" cy="400" opacity="0.92"></circle><circle r="2970" cx="0" cy="400" opacity="0.90"></circle><circle r="2902.5" cx="0" cy="400" opacity="0.88"></circle><circle r="2835" cx="0" cy="400" opacity="0.86"></circle><circle r="2767.5" cx="0" cy="400" opacity="0.84"></circle><circle r="2700" cx="0" cy="400" opacity="0.82"></circle><circle r="2632.5" cx="0" cy="400" opacity="0.80"></circle><circle r="2565" cx="0" cy="400" opacity="0.78"></circle><circle r="2497.5" cx="0" cy="400" opacity="0.76"></circle><circle r="2430" cx="0" cy="400" opacity="0.74"></circle><circle r="2362.5" cx="0" cy="400" opacity="0.72"></circle><circle r="2295" cx="0" cy="400" opacity="0.70"></circle><circle r="2227.5" cx="0" cy="400" opacity="0.68"></circle><circle r="2160" cx="0" cy="400" opacity="0.66"></circle><circle r="2092.5" cx="0" cy="400" opacity="0.64"></circle><circle r="2025" cx="0" cy="400" opacity="0.62"></circle><circle r="1957.5" cx="0" cy="400" opacity="0.60"></circle><circle r="1890" cx="0" cy="400" opacity="0.58"></circle><circle r="1822.5" cx="0" cy="400" opacity="0.56"></circle><circle r="1755" cx="0" cy="400" opacity="0.54"></circle><circle r="1687.5" cx="0" cy="400" opacity="0.53"></circle><circle r="1620" cx="0" cy="400" opacity="0.51"></circle><circle r="1552.5" cx="0" cy="400" opacity="0.49"></circle><circle r="1485" cx="0" cy="400" opacity="0.47"></circle><circle r="1417.5" cx="0" cy="400" opacity="0.45"></circle><circle r="1350" cx="0" cy="400" opacity="0.43"></circle><circle r="1282.5" cx="0" cy="400" opacity="0.41"></circle><circle r="1215" cx="0" cy="400" opacity="0.39"></circle><circle r="1147.5" cx="0" cy="400" opacity="0.37"></circle><circle r="1080" cx="0" cy="400" opacity="0.35"></circle><circle r="1012.5" cx="0" cy="400" opacity="0.33"></circle><circle r="945" cx="0" cy="400" opacity="0.31"></circle><circle r="877.5" cx="0" cy="400" opacity="0.29"></circle><circle r="810" cx="0" cy="400" opacity="0.27"></circle><circle r="742.5" cx="0" cy="400" opacity="0.25"></circle><circle r="675" cx="0" cy="400" opacity="0.23"></circle><circle r="607.5" cx="0" cy="400" opacity="0.21"></circle><circle r="540" cx="0" cy="400" opacity="0.19"></circle><circle r="472.5" cx="0" cy="400" opacity="0.17"></circle><circle r="405" cx="0" cy="400" opacity="0.15"></circle><circle r="337.5" cx="0" cy="400" opacity="0.13"></circle><circle r="270" cx="0" cy="400" opacity="0.11"></circle><circle r="202.5" cx="0" cy="400" opacity="0.09"></circle><circle r="135" cx="0" cy="400" opacity="0.07"></circle></g></svg>