<svg id="visual" viewBox="0 0 960 540" width="960" height="540" xmlns="http://www.w3.org/2000/svg" xmlns:xlink="http://www.w3.org/1999/xlink" version="1.1"><path d="M0 23L14.5 23C29 23 58 23 87.2 23C116.3 23 145.7 23 174.8 23.8C204 24.7 233 26.3 262 30.8C291 35.3 320 42.7 349 41.8C378 41 407 32 436.2 27.5C465.3 23 494.7 23 523.8 24.7C553 26.3 582 29.7 611 29.7C640 29.7 669 26.3 698 24.7C727 23 756 23 785.2 23C814.3 23 843.7 23 872.8 23.8C902 24.7 931 26.3 945.5 27.2L960 28L960 0L945.5 0C931 0 902 0 872.8 0C843.7 0 814.3 0 785.2 0C756 0 727 0 698 0C669 0 640 0 611 0C582 0 553 0 523.8 0C494.7 0 465.3 0 436.2 0C407 0 378 0 349 0C320 0 291 0 262 0C233 0 204 0 174.8 0C145.7 0 116.3 0 87.2 0C58 0 29 0 14.5 0L0 0Z" fill="#133f85"></path><path d="M0 50L14.5 58C29 66 58 82 87.2 82C116.3 82 145.7 66 174.8 62.5C204 59 233 68 262 71.5C291 75 320 73 349 69.3C378 65.7 407 60.3 436.2 64.8C465.3 69.3 494.7 83.7 523.8 93.5C553 103.3 582 108.7 611 101.5C640 94.3 669 74.7 698 72C727 69.3 756 83.7 785.2 90.8C814.3 98 843.7 98 872.8 99C902 100 931 102 945.5 103L960 104L960 26L945.5 25.2C931 24.3 902 22.7 872.8 21.8C843.7 21 814.3 21 785.2 21C756 21 727 21 698 22.7C669 24.3 640 27.7 611 27.7C582 27.7 553 24.3 523.8 22.7C494.7 21 465.3 21 436.2 25.5C407 30 378 39 349 39.8C320 40.7 291 33.3 262 28.8C233 24.3 204 22.7 174.8 21.8C145.7 21 116.3 21 87.2 21C58 21 29 21 14.5 21L0 21Z" fill="#0f397a"></path><path d="M0 82L14.5 91C29 100 58 118 87.2 114.3C116.3 110.7 145.7 85.3 174.8 80C204 74.7 233 89.3 262 93.8C291 98.3 320 92.7 349 86.3C378 80 407 73 436.2 76.7C465.3 80.3 494.7 94.7 523.8 106.3C553 118 582 127 611 123.3C640 119.7 669 103.3 698 103.3C727 103.3 756 119.7 785.2 123.3C814.3 127 843.7 118 872.8 116.2C902 114.3 931 119.7 945.5 122.3L960 125L960 102L945.5 101C931 100 902 98 872.8 97C843.7 96 814.3 96 785.2 88.8C756 81.7 727 67.3 698 70C669 72.7 640 92.3 611 99.5C582 106.7 553 101.3 523.8 91.5C494.7 81.7 465.3 67.3 436.2 62.8C407 58.3 378 63.7 349 67.3C320 71 291 73 262 69.5C233 66 204 57 174.8 60.5C145.7 64 116.3 80 87.2 80C58 80 29 64 14.5 56L0 48Z" fill="#0a326f"></path><path d="M0 163L14.5 171.2C29 179.3 58 195.7 87.2 209.2C116.3 222.7 145.7 233.3 174.8 225.2C204 217 233 190 262 176.5C291 163 320 163 349 157.7C378 152.3 407 141.7 436.2 151.5C465.3 161.3 494.7 191.7 523.8 211.3C553 231 582 240 611 249C640 258 669 267 698 261.7C727 256.3 756 236.7 785.2 223.2C814.3 209.7 843.7 202.3 872.8 202.3C902 202.3 931 209.7 945.5 213.3L960 217L960 123L945.5 120.3C931 117.7 902 112.3 872.8 114.2C843.7 116 814.3 125 785.2 121.3C756 117.7 727 101.3 698 101.3C669 101.3 640 117.7 611 121.3C582 125 553 116 523.8 104.3C494.7 92.7 465.3 78.3 436.2 74.7C407 71 378 78 349 84.3C320 90.7 291 96.3 262 91.8C233 87.3 204 72.7 174.8 78C145.7 83.3 116.3 108.7 87.2 112.3C58 116 29 98 14.5 89L0 80Z" fill="#062c64"></path><path d="M0 195L14.5 203.2C29 211.3 58 227.7 87.2 241.2C116.3 254.7 145.7 265.3 174.8 260.8C204 256.3 233 236.7 262 220.5C291 204.3 320 191.7 349 180.8C378 170 407 161 436.2 178.2C465.3 195.3 494.7 238.7 523.8 258.5C553 278.3 582 274.7 611 277.3C640 280 669 289 698 282.7C727 276.3 756 254.7 785.2 244.8C814.3 235 843.7 237 872.8 243.3C902 249.7 931 260.3 945.5 265.7L960 271L960 215L945.5 211.3C931 207.7 902 200.3 872.8 200.3C843.7 200.3 814.3 207.7 785.2 221.2C756 234.7 727 254.3 698 259.7C669 265 640 256 611 247C582 238 553 229 523.8 209.3C494.7 189.7 465.3 159.3 436.2 149.5C407 139.7 378 150.3 349 155.7C320 161 291 161 262 174.5C233 188 204 215 174.8 223.2C145.7 231.3 116.3 220.7 87.2 207.2C58 193.7 29 177.3 14.5 169.2L0 161Z" fill="#032659"></path><path d="M0 206L14.5 217.7C29 229.3 58 252.7 87.2 274.3C116.3 296 145.7 316 174.8 310.7C204 305.3 233 274.7 262 255.7C291 236.7 320 229.3 349 222.2C378 215 407 208 436.2 221.5C465.3 235 494.7 269 523.8 282.5C553 296 582 289 611 297.2C640 305.3 669 328.7 698 326.8C727 325 756 298 785.2 284.5C814.3 271 843.7 271 872.8 279.2C902 287.3 931 303.7 945.5 311.8L960 320L960 269L945.5 263.7C931 258.3 902 247.7 872.8 241.3C843.7 235 814.3 233 785.2 242.8C756 252.7 727 274.3 698 280.7C669 287 640 278 611 275.3C582 272.7 553 276.3 523.8 256.5C494.7 236.7 465.3 193.3 436.2 176.2C407 159 378 168 349 178.8C320 189.7 291 202.3 262 218.5C233 234.7 204 254.3 174.8 258.8C145.7 263.3 116.3 252.7 87.2 239.2C58 225.7 29 209.3 14.5 201.2L0 193Z" fill="#00204f"></path><path d="M0 228L14.5 240.5C29 253 58 278 87.2 297.8C116.3 317.7 145.7 332.3 174.8 324.3C204 316.3 233 285.7 262 266.7C291 247.7 320 240.3 349 234C378 227.7 407 222.3 436.2 240.3C465.3 258.3 494.7 299.7 523.8 316.8C553 334 582 327 611 332.5C640 338 669 356 698 350.5C727 345 756 316 785.2 304.2C814.3 292.3 843.7 297.7 872.8 304.8C902 312 931 321 945.5 325.5L960 330L960 318L945.5 309.8C931 301.7 902 285.3 872.8 277.2C843.7 269 814.3 269 785.2 282.5C756 296 727 323 698 324.8C669 326.7 640 303.3 611 295.2C582 287 553 294 523.8 280.5C494.7 267 465.3 233 436.2 219.5C407 206 378 213 349 220.2C320 227.3 291 234.7 262 253.7C233 272.7 204 303.3 174.8 308.7C145.7 314 116.3 294 87.2 272.3C58 250.7 29 227.3 14.5 215.7L0 204Z" fill="#001f4b"></path><path d="M0 266L14.5 277.7C29 289.3 58 312.7 87.2 327.8C116.3 343 145.7 350 174.8 342.8C204 335.7 233 314.3 262 300C291 285.7 320 278.3 349 269.3C378 260.3 407 249.7 436.2 265.8C465.3 282 494.7 325 523.8 343C553 361 582 354 611 357.7C640 361.3 669 375.7 698 372C727 368.3 756 346.7 785.2 335C814.3 323.3 843.7 321.7 872.8 328.8C902 336 931 352 945.5 360L960 368L960 328L945.5 323.5C931 319 902 310 872.8 302.8C843.7 295.7 814.3 290.3 785.2 302.2C756 314 727 343 698 348.5C669 354 640 336 611 330.5C582 325 553 332 523.8 314.8C494.7 297.7 465.3 256.3 436.2 238.3C407 220.3 378 225.7 349 232C320 238.3 291 245.7 262 264.7C233 283.7 204 314.3 174.8 322.3C145.7 330.3 116.3 315.7 87.2 295.8C58 276 29 251 14.5 238.5L0 226Z" fill="#001e47"></path><path d="M0 352L14.5 357.3C29 362.7 58 373.3 87.2 383.2C116.3 393 145.7 402 174.8 392.2C204 382.3 233 353.7 262 350.2C291 346.7 320 368.3 349 363C378 357.7 407 325.3 436.2 331.7C465.3 338 494.7 383 523.8 407.2C553 431.3 582 434.7 611 438.2C640 441.7 669 445.3 698 434.7C727 424 756 399 785.2 384.7C814.3 370.3 843.7 366.7 872.8 379.2C902 391.7 931 420.3 945.5 434.7L960 449L960 366L945.5 358C931 350 902 334 872.8 326.8C843.7 319.7 814.3 321.3 785.2 333C756 344.7 727 366.3 698 370C669 373.7 640 359.3 611 355.7C582 352 553 359 523.8 341C494.7 323 465.3 280 436.2 263.8C407 247.7 378 258.3 349 267.3C320 276.3 291 283.7 262 298C233 312.3 204 333.7 174.8 340.8C145.7 348 116.3 341 87.2 325.8C58 310.7 29 287.3 14.5 275.7L0 264Z" fill="#001d43"></path><path d="M0 422L14.5 422C29 422 58 422 87.2 423.8C116.3 425.7 145.7 429.3 174.8 424C204 418.7 233 404.3 262 402.5C291 400.7 320 411.3 349 403.2C378 395 407 368 436.2 375.2C465.3 382.3 494.7 423.7 523.8 448.8C553 474 582 483 611 488.5C640 494 669 496 698 479C727 462 756 426 785.2 415.2C814.3 404.3 843.7 418.7 872.8 433C902 447.3 931 461.7 945.5 468.8L960 476L960 447L945.5 432.7C931 418.3 902 389.7 872.8 377.2C843.7 364.7 814.3 368.3 785.2 382.7C756 397 727 422 698 432.7C669 443.3 640 439.7 611 436.2C582 432.7 553 429.3 523.8 405.2C494.7 381 465.3 336 436.2 329.7C407 323.3 378 355.7 349 361C320 366.3 291 344.7 262 348.2C233 351.7 204 380.3 174.8 390.2C145.7 400 116.3 391 87.2 381.2C58 371.3 29 360.7 14.5 355.3L0 350Z" fill="#001b3f"></path><path d="M0 541L14.5 541C29 541 58 541 87.2 541C116.3 541 145.7 541 174.8 541C204 541 233 541 262 541C291 541 320 541 349 541C378 541 407 541 436.2 541C465.3 541 494.7 541 523.8 541C553 541 582 541 611 541C640 541 669 541 698 541C727 541 756 541 785.2 541C814.3 541 843.7 541 872.8 541C902 541 931 541 945.5 541L960 541L960 474L945.5 466.8C931 459.7 902 445.3 872.8 431C843.7 416.7 814.3 402.3 785.2 413.2C756 424 727 460 698 477C669 494 640 492 611 486.5C582 481 553 472 523.8 446.8C494.7 421.7 465.3 380.3 436.2 373.2C407 366 378 393 349 401.2C320 409.3 291 398.7 262 400.5C233 402.3 204 416.7 174.8 422C145.7 427.3 116.3 423.7 87.2 421.8C58 420 29 420 14.5 420L0 420Z" fill="#001a3b"></path></svg>